<?xml version="1.0" standalone="no"?><svg xmlns="http://www.w3.org/2000/svg" viewBox="0 0 1440 320"><path fill="#0d6efd" fill-opacity="1" d="M0,192L40,197.3C80,203,160,213,240,208C320,203,400,181,480,181.3C560,181,640,203,720,186.7C800,171,880,117,960,117.3C1040,117,1120,171,1200,197.3C1280,224,1360,224,1400,224L1440,224L1440,320L1400,320C1360,320,1280,320,1200,320C1120,320,1040,320,960,320C880,320,800,320,720,320C640,320,560,320,480,320C400,320,320,320,240,320C160,320,80,320,40,320L0,320Z"></path></svg>